<svg width="36" height="38" viewBox="0 0 36 38" fill="none" xmlns="http://www.w3.org/2000/svg">
<path d="M35 18.9721C35 28.5725 27.3708 36.3221 18 36.3221C8.62923 36.3221 1 28.5725 1 18.9721C1 9.37169 8.62923 1.62207 18 1.62207C27.3708 1.62207 35 9.37169 35 18.9721Z" stroke="black" stroke-width="2"/>
<path d="M18.3536 20.0535L22.6397 24.4229C22.8376 24.6247 23.1625 24.6247 23.3604 24.4229C23.553 24.2266 23.553 23.9123 23.3604 23.716L19.0607 19.3326L23.3604 14.9493C23.553 14.753 23.553 14.4387 23.3604 14.2424C23.1625 14.0406 22.8376 14.0406 22.6397 14.2424L18.3536 18.6118L14.0675 14.2424C13.8696 14.0406 13.5446 14.0406 13.3467 14.2424C13.1542 14.4387 13.1542 14.753 13.3467 14.9493L17.6465 19.3326L13.3467 23.716C13.1542 23.9123 13.1542 24.2266 13.3467 24.4229C13.5446 24.6247 13.8696 24.6247 14.0675 24.4229L18.3536 20.0535Z" fill="black" stroke="black" stroke-linecap="round"/>
</svg>
